<svg xmlns="http://www.w3.org/2000/svg" viewBox="0 0 512 512">
  <defs>
    <linearGradient id="bg" x1="0%" y1="0%" x2="100%" y2="100%">
      <stop offset="0%" stop-color="#2f80ed" />
      <stop offset="100%" stop-color="#56ccf2" />
    </linearGradient>
    <linearGradient id="disc" x1="0%" y1="0%" x2="0%" y2="100%">
      <stop offset="0%" stop-color="#f8f9fa" />
      <stop offset="100%" stop-color="#dbe2ef" />
    </linearGradient>
  </defs>
  <rect width="512" height="512" rx="88" ry="88" fill="url(#bg)" />
  <g transform="translate(256 256)">
    <circle r="168" fill="url(#disc)" stroke="#1b4b8c" stroke-width="16" />
    <path d="M-96 -40 h192 a16 16 0 0 1 0 32 h-192 a16 16 0 0 1 0 -32z" fill="#1b4b8c" />
    <path d="M-64 -112 h64 a24 24 0 0 1 24 24 v80 h-64 a24 24 0 0 1 -24 -24z" fill="#ff6f61" />
    <path d="M0 16 h64 a24 24 0 0 1 24 24 v80 h-64 a24 24 0 0 1 -24 -24z" fill="#f2c94c" />
    <path d="M-112 32 h64 a24 24 0 0 1 24 24 v80 h-64 a24 24 0 0 1 -24 -24z" fill="#6fcf97" />
    <circle r="24" fill="#1b4b8c" />
    <circle r="12" fill="#f8f9fa" />
  </g>
</svg>
